<svg xmlns="http://www.w3.org/2000/svg" width="171" height="30" viewBox="0 0 171 30">
  <g fill="none" fill-rule="evenodd">
    <path fill="#071540" fill-rule="nonzero" d="M11.4389977 5.67084816C13.0183937 5.67084816 14.2987472 4.40138556 14.2987472 2.83542408 14.2987472 1.2694626 13.0183937.58874856e-17 11.4389977 0L2.85974943 0C1.28035343-.58874856e-17.93420226e-16 1.2694626 0 2.83542408-.93420226e-16 4.40138556 1.28035343 5.67084816 2.85974943 5.67084816L11.4389977 5.67084816zM28.5974943 5.67084816C30.1768903 5.67084816 31.4572438 4.40138556 31.4572438 2.83542408 31.4572438 1.2694626 30.1768903.58874856e-17 28.5974943 0L20.018246 0C18.43885-.58874856e-17 17.1584966 1.2694626 17.1584966 2.83542408 17.1584966 4.40138556 18.43885 5.67084816 20.018246 5.67084816L28.5974943 5.67084816zM11.4389977 22.6833926C13.0183937 22.6833926 14.2987472 21.41393 14.2987472 19.8479686 14.2987472 18.2820071 13.0183937 17.0125445 11.4389977 17.0125445L2.85974943 17.0125445C1.28035343 17.0125445.93420226e-16 18.2820071 0 19.8479686-.93420226e-16 21.41393 1.28035343 22.6833926 2.85974943 22.6833926L11.4389977 22.6833926z"/>
    <ellipse cx="20.018" cy="19.848" fill="#071540" fill-rule="nonzero" rx="2.86" ry="2.835"/>
    <path fill="#2760FF" fill-rule="nonzero" d="M2.85974943 8.50627224C1.28035343 8.50627224.93420226e-16 9.77573484 0 11.3416963-.93420226e-16 12.9076578 1.28035343 14.1771204 2.85974943 14.1771204 4.43914543 14.1771204 5.71949887 12.9076578 5.71949887 11.3416963 5.71949887 9.77573484 4.43914543 8.50627224 2.85974943 8.50627224zM2.85974943 12.4758659C2.22799103 12.4758659 1.71584966 11.9680809 1.71584966 11.3416963 1.71584966 10.7153117 2.22799103 10.2075267 2.85974943 10.2075267 3.49150783 10.2075267 4.00364921 10.7153117 4.00364921 11.3416963 4.00364921 11.9680809 3.49150783 12.4758659 2.85974943 12.4758659zM28.5974943 17.0125445C27.0180983 17.0125445 25.7377449 18.2820071 25.7377449 19.8479686 25.7377449 21.41393 27.0180983 22.6833926 28.5974943 22.6833926 30.1768903 22.6833926 31.4572438 21.41393 31.4572438 19.8479686 31.4572438 18.2820071 30.1768903 17.0125445 28.5974943 17.0125445zM28.5974943 20.9821382C27.9657359 20.9821382 27.4535946 20.4743531 27.4535946 19.8479686 27.4535946 19.221584 27.9657359 18.7137989 28.5974943 18.7137989 29.2292527 18.7137989 29.7413941 19.221584 29.7413941 19.8479686 29.7413941 20.4743531 29.2292527 20.9821382 28.5974943 20.9821382z"/>
    <path fill="#071540" fill-rule="nonzero" d="M28.5974943 8.50627224C27.4603065 8.50617656 26.4311231 9.17414229 25.976248 10.2075267L22.6394924 10.2075267C22.1847856 9.17392648 21.1555661 8.50572076 20.018246 8.50572076 18.880926 8.50572076 17.8517065 9.17392648 17.3969997 10.2075267L14.0602441 10.2075267C13.5185624 8.97693542 12.180605 8.29175826 10.854966 8.56608179 9.52932702 8.84040531 8.57949098 9.99901117 8.57949098 11.3416963 8.57949098 12.6843815 9.52932702 13.8429873 10.854966 14.1173108 12.180605 14.3916344 13.5185624 13.7064572 14.0602441 12.4758659L17.3969997 12.4758659C17.8517065 13.5094662 18.880926 14.1776719 20.018246 14.1776719 21.1555661 14.1776719 22.1847856 13.5094662 22.6394924 12.4758659L25.976248 12.4758659C26.5475513 13.7737515 27.9970693 14.4547139 29.3719259 14.0711057 30.7467824 13.6874975 31.6253841 12.3569504 31.4301605 10.9541322 31.2349369 9.55131402 30.0257525 8.50639241 28.5974943 8.50627224zM70.9538151 7.26946025L70.9538151 8.99736769C70.0827355 7.73220146 68.7443727 6.96096612 66.8151858 6.96096612 63.1432675 6.96096612 59.7516047 10.0152849 59.7516047 14.9829479 59.7516047 20.0118561 63.1747247 23.0049297 66.7219579 23.0049297 68.6202596 23.0049297 70.0518502 22.2336944 70.9543871 20.8760933L70.9543871 22.6964356 76.2443516 22.6964356 76.2443516 7.27172859 70.9538151 7.26946025zM67.8046591 18.1467141C66.0515295 18.1467141 64.6303372 16.7376106 64.6303372 14.9993934 64.6303372 13.2611761 66.0515295 11.8520727 67.8046591 11.8520727 69.5577886 11.8520727 70.9789809 13.2611761 70.9789809 14.9993934 70.9789809 16.7376106 69.5577886 18.1467141 67.8046591 18.1467141zM93.0562466 18.1540862L88.5275474 16.2299674C87.9317484 17.6075787 86.43984 18.3785856 84.95963 18.0738399 83.47942 17.7690942 82.4204387 16.47291 82.4270631 14.9739995 82.4336876 13.475089 83.504085 12.1881562 84.9869318 11.8962839 86.4697785 11.6044117 87.9548148 12.3883523 88.5384144 13.7710877L93.0568185 11.8254197C91.5413598 8.31843363 87.7476206 6.35152807 83.9781155 7.11846684 80.2086105 7.88540561 77.5027227 11.1747171 77.5027227 14.9900365 77.5027227 18.8053558 80.2086105 22.0946674 83.9781155 22.8616061 87.7476206 23.6285449 91.5413598 21.6616393 93.0568185 18.1546533L93.0562466 18.1540862zM35.6667949.173527954L43.3538014.173527954C48.8307935.173527954 51.6310602 2.33298693 51.6310602 6.56003715 51.6310602 8.53462648 50.8217511 9.98466235 49.4216178 10.9413344 51.2575769 11.8980065 52.2842269 13.5022895 52.2842269 15.8471852 52.2842269 20.5369766 49.0166772 22.6964356 43.5711424 22.6964356L35.6667949 22.6964356 35.6667949.173527954zM40.9567594 4.89394196L40.9567594 8.78130837 43.6020277 8.78130837C45.5312146 8.78130837 46.2472959 7.94826078 46.2472959 6.7449068 46.2472959 5.51093024 45.469444 4.89394196 43.5711424 4.89394196L40.9567594 4.89394196zM40.9567594 13.6270481L40.9567594 17.9465332 43.6969713 17.9465332C45.8131859 17.9465332 46.7466081 17.1441082 46.7466081 15.7252619 46.7466081 14.3064157 46.0310988 13.6270481 43.6660861 13.6270481L40.9567594 13.6270481z"/>
    <polygon fill="#071540" fill-rule="nonzero" points="58.568 .174 58.568 22.696 53.404 22.696 53.404 .174"/>
    <polygon fill="#071540" fill-rule="nonzero" points="101.231 17.358 99.426 19.549 99.426 22.696 94.229 22.696 94.229 .174 99.426 .174 99.426 13.255 104.312 7.269 110.504 7.269 104.965 13.996 110.754 22.696 104.838 22.696"/>
    <path fill="#071540" fill-rule="nonzero" d="M111.033203,7.26946025 L113.335874,7.26946025 C113.335874,2.02449279 115.140948,0.172960869 120.648825,0.172960869 L121.208764,0.172960869 L121.208764,5.23305868 C118.749379,5.23305868 118.53261,5.41792833 118.53261,7.02277836 L118.53261,7.26946025 L121.208764,7.26946025 L121.208764,11.8974394 L118.53261,11.8974394 L118.53261,22.6958685 L113.335874,22.6958685 L113.335874,11.8974394 L111.033203,11.8974394 L111.033203,7.26946025 Z"/>
    <polygon fill="#071540" fill-rule="nonzero" points="127.774 22.048 121.83 7.269 127.338 7.269 130.45 15.476 133.344 7.269 138.759 7.269 130.108 29.823 124.755 29.823"/>
    <path fill="#071540" fill-rule="nonzero" d="M139.567783 7.26946025L144.826863 7.26946025 144.826863 8.99736769C145.760285 7.73220146 147.160418 6.96096612 148.840807 6.96096612 152.170127 6.96096612 154.348684 9.12042509 154.348684 12.8541115L154.348684 22.6958685 148.965492 22.6958685 148.965492 13.9956533C148.965492 12.3913703 148.311753 11.4965105 146.943077 11.4965105 145.729399 11.4965105 144.85832 12.3601806 144.85832 14.2117126L144.85832 22.6958685 139.568355 22.6958685 139.567783 7.26946025zM155.779703 7.26946025L161.038782 7.26946025 161.038782 8.99736769C161.972204 7.73220146 163.372338 6.96096612 165.052726 6.96096612 168.382619 6.96096612 170.560604 9.12042509 170.560604 12.8541115L170.560604 22.6958685 165.179127 22.6958685 165.179127 13.9956533C165.179127 12.3913703 164.525389 11.4965105 163.156141 11.4965105 161.942463 11.4965105 161.071383 12.3601806 161.071383 14.2117126L161.071383 22.6958685 155.781419 22.6958685 155.779703 7.26946025z"/>
  </g>
</svg>
